<svg id="input_error" xmlns="http://www.w3.org/2000/svg" width="507.2" height="507.2" viewBox="0 0 507.2 507.2">
  <circle id="楕円形_3" data-name="楕円形 3" cx="253.6" cy="253.6" r="253.6" transform="translate(0 0)" fill="#f15249"/>
  <path id="パス_180" data-name="パス 180" d="M147.2,368,284,504.8A252.29,252.29,0,0,0,504.8,285.6L367.2,148Z" fill="#ad0e0e"/>
  <path id="パス_181" data-name="パス 181" d="M373.6,309.6c11.2,11.2,11.2,30.4,0,41.6l-22.4,22.4c-11.2,11.2-30.4,11.2-41.6,0l-176-176c-11.2-11.2-11.2-30.4,0-41.6l23.2-23.2c11.2-11.2,30.4-11.2,41.6,0Z" fill="#fff"/>
  <path id="パス_182" data-name="パス 182" d="M280.8,216,216,280.8l93.6,92.8c11.2,11.2,30.4,11.2,41.6,0l23.2-23.2c11.2-11.2,11.2-30.4,0-41.6Z" fill="#d6d6d6"/>
  <path id="パス_183" data-name="パス 183" d="M309.6,133.6c11.2-11.2,30.4-11.2,41.6,0l23.2,23.2c11.2,11.2,11.2,30.4,0,41.6L197.6,373.6c-11.2,11.2-30.4,11.2-41.6,0l-22.4-22.4c-11.2-11.2-11.2-30.4,0-41.6Z" fill="#fff"/>
</svg>
