<svg id="pageup" xmlns="http://www.w3.org/2000/svg" width="54" height="54" viewBox="0 0 54 54">
  <g id="グループ_3" data-name="グループ 3">
    <path id="パス_185" data-name="パス 185" d="M53,27h0A25.948,25.948,0,0,1,27,53h0A25.948,25.948,0,0,1,1,27H1A25.948,25.948,0,0,1,27,1h0A25.948,25.948,0,0,1,53,27Z" fill="#dc5310"/>
    <path id="パス_186" data-name="パス 186" d="M27,54A27,27,0,1,1,54,27,27.015,27.015,0,0,1,27,54ZM27,2A25,25,0,1,0,52,27,25.009,25.009,0,0,0,27,2Z" fill="#dc5310"/>
  </g>
  <path id="パス_187" data-name="パス 187" d="M39,32.7a.908.908,0,0,1-.7-.3L27,21.1,15.7,32.4A.99.99,0,0,1,14.3,31L25.8,19.5a1.633,1.633,0,0,1,2.4,0L39.7,31a.967.967,0,0,1,0,1.4A.908.908,0,0,1,39,32.7Z" fill="#fff"/>
</svg>
