<svg id="icon_line" xmlns="http://www.w3.org/2000/svg" width="32" height="32" viewBox="0 0 32 32">
  <g id="グループ_3" data-name="グループ 3">
    <path id="前面オブジェクトで型抜き_1" data-name="前面オブジェクトで型抜き 1" d="M16,32A16,16,0,0,1,4.686,4.686,16,16,0,0,1,27.314,27.314,15.9,15.9,0,0,1,16,32ZM16,7.471c-5.027,0-9.116,3.275-9.116,7.3s3.781,6.654,7.515,7.187a1.247,1.247,0,0,1,.909.437,1.516,1.516,0,0,1,.019,1.183c-.091.381-.177.74.045.913a.247.247,0,0,0,.152.038c.648,0,2.983-1.2,5.313-3.145,1.6-1.337,4.281-3.973,4.281-6.613C25.117,10.746,21.027,7.471,16,7.471Zm5.629,9.637H19.79a.476.476,0,0,1-.476-.476V13.106a.475.475,0,0,1,.515-.476h1.8a.5.5,0,0,1,0,.991H20.305v.753h1.323a.5.5,0,0,1,0,.991H20.305v.752h1.323a.5.5,0,0,1,0,.991ZM15.584,17.1a.475.475,0,0,1-.516-.476V13.1A.5.5,0,0,1,16,12.862l1.718,2.306V13.1a.5.5,0,0,1,.991,0v3.526a.475.475,0,0,1-.515.475.457.457,0,0,1-.4-.22l-1.731-2.364v2.109A.476.476,0,0,1,15.584,17.1Zm-1.66,0a.475.475,0,0,1-.516-.475V13.1a.5.5,0,0,1,.991,0v3.526A.475.475,0,0,1,13.924,17.1Zm-1.374,0h-1.8a.474.474,0,0,1-.515-.475V13.1a.5.5,0,0,1,.99,0v3.011H12.55a.5.5,0,0,1,0,.991Z" fill="#ed7124"/>
  </g>
</svg>
