<svg id="icon_twitter" xmlns="http://www.w3.org/2000/svg" width="34.836" height="28.508" viewBox="0 0 34.836 28.508">
  <path id="パス_20117" data-name="パス 20117" d="M3.348,98.806a14.589,14.589,0,0,0,10.429-2.978,7.4,7.4,0,0,1-6.714-5,7.959,7.959,0,0,0,3.15-.124,7.4,7.4,0,0,1-5.687-7.155,7.647,7.647,0,0,0,3.24.869,7.256,7.256,0,0,1-3.136-6.2,6.684,6.684,0,0,1,.97-3.365,20.609,20.609,0,0,0,14.8,7.5c-.034-.262-.055-.469-.083-.682a7.146,7.146,0,0,1,5.776-8.017,6.9,6.9,0,0,1,6.259,1.813.816.816,0,0,0,.855.214,17.191,17.191,0,0,0,3.977-1.551,7.449,7.449,0,0,1-2.861,3.846c.31-.055.627-.1.937-.159s.648-.145.972-.234.613-.179.917-.283a6.382,6.382,0,0,1,.986-.283c-.179.248-.352.51-.545.751a16.07,16.07,0,0,1-2.737,2.7.544.544,0,0,0-.186.386A21.1,21.1,0,0,1,25.233,98.9a19.267,19.267,0,0,1-6.562,2.654,21.673,21.673,0,0,1-7.024.3A19.456,19.456,0,0,1,4.94,99.793c-.558-.283-1.1-.6-1.641-.9a.515.515,0,0,0,.049-.087Z" transform="translate(-3.299 -73.503)" fill="#ed7124"/>
</svg>
