<svg xmlns="http://www.w3.org/2000/svg" width="32" height="32" viewBox="0 0 32 32">
  <path id="icon_facebook" d="M30.208,14.165a16,16,0,1,0,16,16,16,16,0,0,0-16-16ZM35.672,24.4a.276.276,0,0,1-.276.276H31.5v2.093H35.4a.276.276,0,0,1,.276.276v3.895a.276.276,0,0,1-.276.276H31.777v8.546a.276.276,0,0,1-.276.276H27.819a.276.276,0,0,1-.276-.276V31.222H25.02a.276.276,0,0,1-.276-.276v-3.9a.276.276,0,0,1,.276-.276h2.521v-1.58a.283.283,0,0,1,.008-.066c0-2.249.484-4.827,4.169-4.835h3.675a.276.276,0,0,1,.276.276V24.4Z" transform="translate(-14.208 -14.165)" fill="#ed7124"/>
</svg>
