<svg id="logo_w" xmlns="http://www.w3.org/2000/svg" width="1085.829" height="346.16" viewBox="0 0 1085.829 346.16">
  <g id="レイヤー_1" data-name="レイヤー 1">
    <path id="パス_73" data-name="パス 73" d="M406.28,259.06q-31.62,0-49-15.92t-17.41-44.78a123.878,123.878,0,0,1,2.52-22.68L360.6,81.79a.6.6,0,0,1,.6-.5h27.39a.62.62,0,0,1,.6.73L371,175.45a100.222,100.222,0,0,0-2.06,19q0,19,10.08,29t29.32,10q15.59,0,25.89-6t16.84-18.21q6.53-12.26,10.42-32l18.69-95.5a.62.62,0,0,1,.6-.49h27.39a.61.61,0,0,1,.6.73L489,183.24q-7.56,38.47-28,57.15T406.28,259.06Z" fill="#fff"/>
    <path id="パス_74" data-name="パス 74" d="M505,254.71l22.23-114.53a.57.57,0,0,1,.57-.47h24a.58.58,0,0,1,.57.68l-2,11a.57.57,0,0,0,1,.44,41.59,41.59,0,0,1,14-11A46.27,46.27,0,0,1,586.22,136q16.72,0,26.69,10.08t10,27.26a62.942,62.942,0,0,1-1.38,12.83l-13.19,68.72a.59.59,0,0,1-.57.47h-25.2a.58.58,0,0,1-.57-.69l12.47-64.83a53.393,53.393,0,0,0,1.15-10.31q0-20.16-19.93-20.16a27.83,27.83,0,0,0-20.62,8.93q-8.72,8.94-11.68,24.29l-12.06,62.3a.58.58,0,0,1-.56.47H505.6a.58.58,0,0,1-.6-.65Z" fill="#fff"/>
    <path id="パス_75" data-name="パス 75" d="M731.46,257.92q-24.27,0-43.06-9.85A72.12,72.12,0,0,1,659,219.89q-10.65-18.33-10.65-42.84a98.14,98.14,0,0,1,12.48-48.68,96,96,0,0,1,35.28-36q22.78-13.62,51.2-13.63A112.639,112.639,0,0,1,777.74,83a92.371,92.371,0,0,1,25.52,11.1.61.61,0,0,1,.25.67l-6.32,23.11a.6.6,0,0,1-.87.36q-24-13.81-50.2-13.82a65.91,65.91,0,0,0-33.67,9,69.391,69.391,0,0,0-25.2,25.43,70.841,70.841,0,0,0-9.62,36.54q0,16.49,7,29.32a50.35,50.35,0,0,0,20,20.16q13.07,7.33,30.47,7.33a97.15,97.15,0,0,0,46.33-11.9.59.59,0,0,1,.87.51l.22,24.54a.61.61,0,0,1-.32.54Q760.12,257.92,731.46,257.92Z" fill="#fff"/>
    <path id="パス_76" data-name="パス 76" d="M829.36,139.71h25a.65.65,0,0,1,.64.77L832.8,254.87a.65.65,0,0,1-.64.53h-25a.65.65,0,0,1-.64-.77l22.2-114.4A.65.65,0,0,1,829.36,139.71Zm19.4-26.8a14.51,14.51,0,0,1-15.12-15.12,16.92,16.92,0,0,1,5.15-12.6,17.77,17.77,0,0,1,12.94-5A14.15,14.15,0,0,1,866.63,95a17.48,17.48,0,0,1-5,12.71,17.15,17.15,0,0,1-12.87,5.2Z" fill="#fff"/>
    <path id="パス_77" data-name="パス 77" d="M897.68,161.93H873.14a.65.65,0,0,1-.64-.77l4.1-20.93a.65.65,0,0,1,.64-.52h25a.64.64,0,0,0,.63-.52l6.21-31.26a.65.65,0,0,1,.64-.52h25a.65.65,0,0,1,.64.77l-6.11,30.75a.65.65,0,0,0,.63.78H957.4a.65.65,0,0,1,.64.77L954,161.41a.65.65,0,0,1-.64.52h-28a.64.64,0,0,0-.64.53l-17.9,92.41a.63.63,0,0,1-.63.53h-25a.65.65,0,0,1-.63-.77l17.8-91.93a.65.65,0,0,0-.68-.77Z" fill="#fff"/>
    <path id="パス_78" data-name="パス 78" d="M991.64,243.69,965.55,140.46a.6.6,0,0,1,.58-.75h25.78a.6.6,0,0,1,.58.47l17,77.76a.6.6,0,0,0,1.1.18l46.7-78.12a.6.6,0,0,1,.51-.29h27.43a.6.6,0,0,1,.5.93l-109,170.61a.61.61,0,0,1-.5.28h-26.5a.6.6,0,0,1-.5-.93l42.34-66.44a.64.64,0,0,0,.07-.47Z" fill="#fff"/>
    <path id="パス_79" data-name="パス 79" d="M48.6,152.27c1.67-1.46,3.07-2.55,4.32-3.79,6.4-6.37,12.83-12.72,19.13-19.19,5.6-5.75,11-11.71,16.58-17.47,7.78-8,15.66-15.94,23.49-23.9.43-.43.88-.83,1.57-1.47.91,5.92,1.79,11.57,2.66,17.22H117c.24-6.28.54-12.57.66-18.85a5.6,5.6,0,0,1,1.63-4.12c3.19-3.37,6.14-7,9.25-10.42a13.71,13.71,0,0,1,21,.53c3.15,3.94,3.74,8.45,3,13.29-1.12,7.14-4.54,13.45-7.41,19.93-5.61,12.7-11,25.47-15.42,38.67-.81,2.42-3.11,4.31-4.41,6.62a10.71,10.71,0,0,1-9,5.72,40,40,0,0,0-6.34,1.68c.6-14.3,1.48-28.44,4.84-42.68-17.6,18.09-31.29,39-47.94,57.45v-5.77c-.09-4,0-8.07-.39-12.08-.35-3.7-2.37-6.58-6.22-6.42-2.42.1-4.08,1.72-5,4.74-2,6.29-4,12.61-6.24,18.82-2.42,6.64-5.18,13.16-7.76,19.75-.75,1.91-2.48,1.34-3.73,1.33a14.89,14.89,0,0,1-14.6-12.51,23.07,23.07,0,0,1,.57-7.28c.75-4.09,1.85-8.11,2.64-12.19,1.25-6.37,2.22-12.81,3.58-19.16,5.68-26.95,16.71-51.81,30-75.72a271.569,271.569,0,0,1,24.2-36.68c.62-.79,1.27-1.56,2.1-2.57,2.69,3,5.32,6,8,9a2,2,0,0,1,.27,2.38C89.69,48.53,83.56,59.21,78,70.19c-6.53,13-12.9,26-19,39.2a108.719,108.719,0,0,0-7.84,24.71c-1,5.13-1.52,10.34-2.25,15.52C48.87,150.36,48.77,151.1,48.6,152.27Z" fill="#828282"/>
    <path id="パス_80" data-name="パス 80" d="M108.41,290.84l4,1.62a19,19,0,0,1-10.84,1.88c-9.61-1.29-15.56-7.57-20.21-15.26-4.77-7.9-7.59-16.63-9.51-25.65a68.68,68.68,0,0,1-1.68-16.79c.06-1.77.29-3.54.44-5.29l5.88-.64c1.31,3.22,2.54,6.67,4.1,10a200.167,200.167,0,0,0,15.49,27.83,3.08,3.08,0,0,0,.3.41c3.84,4.31,5,3.88,8,.5,4.93-5.49,9.59-11.22,14.36-16.85l.83-1c1.87,2.31,3.62,4.63,5.54,6.78,3.11,3.47,6.31,6.85,9.53,10.21.74.77.92,1.19.24,2.19-3.87,5.72-8,11.2-13.21,15.77a41,41,0,0,1-3.8,3,4.37,4.37,0,0,1-2,.53c-2.46.2-4.94.32-7.41.46Z" fill="#828282"/>
    <path id="パス_81" data-name="パス 81" d="M142.85,218c.79,8.67,7.72,10.86,13.25,6.09-.39,3.53,1,6.85-.33,10.2a9.29,9.29,0,0,0-.6,3.59c.08,4.94-2.22,9.38-2.92,14.15-.46,3.13-1.15,6.24-1.48,9.38a10.61,10.61,0,0,0,2.21,7c-3.62-1.65-5.37-2.93-7.14-16.06-2.09,3.76-4,7.29-6.11,11a130.911,130.911,0,0,1-14.8-19.26c.27-.44.49-.83.74-1.19Z" fill="#828282"/>
    <path id="パス_82" data-name="パス 82" d="M168,213c-.49-2.64-.87-5.32-1.51-8-.71-2.91-4.37-6-7.58-5.64s-4.68,2.23-5.87,4.74c-.62,1.32-1.16,2.68-1.92,4.45a20,20,0,0,1,1.11-8.94A91.45,91.45,0,0,1,169.14,172c5.72-6.38,15.55-4.49,19.29,2.44a2,2,0,0,1-.05,1.5c-3.45,8-6.89,16-10.46,24a19.79,19.79,0,0,1-2.69,3.59Z" fill="#828282"/>
    <path id="パス_83" data-name="パス 83" d="M123.18,166.25l-5,21.82.31.07,3.79-3.76c-.66,2.8-1.19,5.35-1.88,7.85a38.321,38.321,0,0,1-2.07,6.12c-1.18,2.5-3.42,3.33-5.48,2.41a3.32,3.32,0,0,1-2.15-3.29,21.8,21.8,0,0,1,.67-5.23,122.76,122.76,0,0,1,10.84-24.65A12.8,12.8,0,0,1,123.18,166.25Z" fill="#828282"/>
    <path id="パス_84" data-name="パス 84" d="M92.05,18.66l11.2-14a97,97,0,0,1-4.76,20.88Z" fill="#828282"/>
    <path id="パス_85" data-name="パス 85" d="M114.21,164.83l-4.29,7.35h-.29v-5.19a.81.81,0,0,1,.46-.55C111.31,165.93,112.53,165.48,114.21,164.83Z" fill="#828282"/>
    <path id="パス_86" data-name="パス 86" d="M54.71,178.2c.11,2.6,1.42,5.64-2.43,6.9Z" fill="#828282"/>
    <path id="パス_87" data-name="パス 87" d="M117.36,346.16l-1.44-.22c-1-.16-2.07-.32-3.1-.45C100,344,89.14,339.79,79.68,332.68c-6.79-5.1-11.46-9.91-14.67-15.15a57.3,57.3,0,0,1-3.8-7.85c-.5-1.18-1-2.4-1.55-3.57l-.23-.49,1.44-.78.3.35.73.81c.52.58,1.07,1.18,1.57,1.82,4.34,5.5,10.29,9.24,16,12.85l.35.23c13.57,8.52,26.53,14.37,39.62,17.88a81.924,81.924,0,0,0,11.79,2.41,7,7,0,0,0,.81.05,19.349,19.349,0,0,0,4.77-.86l.89-.23a42.666,42.666,0,0,0,4.3-1.45l2-.73,1.63-.57-1,1.43a16,16,0,0,1-4.59,4,17,17,0,0,1-3.63,2c-.75.3-1.56.62-2.32.87a15,15,0,0,1-3.52.42H117.36Z" fill="#4d4d4d"/>
    <path id="パス_88" data-name="パス 88" d="M115.87,103.74l-.33-1.84c-.24-1.32-.49-2.68-.65-4a150.859,150.859,0,0,0-7.37-31.76c-.5-1.44-1-2.88-1.48-4.32-2.15-6.36-4.39-12.93-7.64-19C95.6,37.64,92,31.71,86.73,27.1,77,18.63,66.49,9.86,54.12,4c-1-.5-2-1.07-3-1.63L49.77,1.6l-.41-.22L49.77,0l.49.07c1.16.18,2.35.34,3.5.49,2.52.34,5.13.7,7.66,1.23,13.49,2.82,25.22,9.94,35.86,21.74,7,7.79,12.11,17.45,15.59,29.54a172.715,172.715,0,0,1,4.67,20.81,86.52,86.52,0,0,1,.53,21.28c-.17,2-.31,3.93-.45,5.85-.06.88-.12,1.77-.19,2.65v.5l-1.44.08Z" fill="#4d4d4d"/>
    <path id="パス_89" data-name="パス 89" d="M218.24,117.38c-.82-2.06-1.61-4.1-2.38-6.08-1.66-4.32-3.24-8.4-5-12.42C205.55,87,199.58,73.59,191.34,61.76,185.93,54,179.13,47.48,172.6,41.6a52.69,52.69,0,0,0-20.83-11.35,4.44,4.44,0,0,1-.82-.34l-.43-.2-1.2-.53,1.21-.52c.11,0,.2-.1.29-.14a1.85,1.85,0,0,1,.77-.26c1.38,0,3-.09,4.65-.09,5.12,0,11.14.38,17,3.23,11.13,5.37,19.9,13.44,26.81,24.69,7.26,11.81,12.46,25.26,15.9,41.14.95,4.37,1.76,8.84,2.55,13.16.26,1.39.51,2.79.77,4.18a7.139,7.139,0,0,1,.05,1.56v1Z" fill="#4d4d4d"/>
    <path id="パス_90" data-name="パス 90" d="M147.26,279.39a2,2,0,0,1-1.32-.53c-1.15-1-2.35-1.9-3.51-2.81a82.649,82.649,0,0,1-6.46-5.44,143.264,143.264,0,0,1-11-12c-3.2-3.92-6.29-8.05-9.27-12-1.24-1.65-2.48-3.31-3.73-5a7.059,7.059,0,0,1-.52-.8c0-.08-.08-.14-.11-.19l-.24-.4,7.59-7.32.37.63c8.62,14.83,18.76,30.11,34.38,41.39l.68.49-5.41,3.48a2.62,2.62,0,0,1-1.45.5Z" fill="#4d4d4d"/>
    <path id="パス_91" data-name="パス 91" d="M192.66,295.79c-6.83,0-27.32-5.69-34.26-9.51l-.82-.45.77-.53a18,18,0,0,0,1.49-1.15,7.73,7.73,0,0,1,3.7-2.08h.3a7,7,0,0,1,3.29,1.29,12.8,12.8,0,0,0,1.71.9c4.89,2,9.88,4,14.7,6l7.33,3c.74.29,1.45.6,2.21.93l1.1.47,1.63.69-1.73.39A6.18,6.18,0,0,1,192.66,295.79Z" fill="#4d4d4d"/>
    <path id="パス_92" data-name="パス 92" d="M106.17,232.28c-1.55-5.47-1-10.73-.38-16.3.13-1.18.26-2.4.37-3.62l.17-1.89,2.43,4.46c1.68,3.08,3.26,6,4.81,8.88,0,0,.7,1.37.12,2a80.1,80.1,0,0,1-6.59,6.72l-.68.61Z" fill="#4d4d4d"/>
    <path id="パス_93" data-name="パス 93" d="M95.71,209.94c-.41-1.94-.9-3.87-1.37-5.75-1.65-6.6-3.21-12.83-2-19.65l1.11-.06c.12.38.22.77.31,1.15a12.16,12.16,0,0,0,.75,2.3c.72,1.49,1.51,3,2.27,4.45s1.59,3.05,2.34,4.61a4.72,4.72,0,0,1,.3,2.81c-.48,2.44-1.06,4.89-1.61,7.27-.14.58-.28,1.16-.41,1.74a2.62,2.62,0,0,1-.33.71c-.09.15-.19.33-.32.57L96,211.48Z" fill="#4d4d4d"/>
    <path id="パス_94" data-name="パス 94" d="M234.91,314.69a4,4,0,0,1-.49-.35c-.2-.18-.38-.38-.58-.56a13.269,13.269,0,0,1-1.84-2.3c-.68-.92-1.37-1.84-2.11-2.72a16.53,16.53,0,0,1-3.73-9.92c-.45-10.8-.65-19.63-.63-27.8,0-9.81.2-19.79.36-29.44.07-4.18.15-8.37.21-12.56l-1.39,1.38c-2.54,2.52-5.17,5.12-7.69,7.75a2.37,2.37,0,0,0-.45,1.54c.65,10.62-1.42,18.92-6.51,26.12-3.66,5.16-8.29,7.73-14.18,7.84-1.87,0-3.79.13-5.64.22l-2,.1-1.35.1-1,.09-.57-1.77.76-.48a12.352,12.352,0,0,1,1.27-.75l3.71-1.76c2.26-1.07,4.6-2.18,6.87-3.31a2.29,2.29,0,0,0,.44-.58c.13-.2.25-.4.4-.59l.46-.63a9.118,9.118,0,0,1,1.28-1.53c1.33-1.19,1.79-2.8,2.21-4.64a30,30,0,0,0,.87-7.63l-1,.82c-2.09,1.69-3.89,3.15-4.48,5.81s-2.83,4.34-5.86,4.34a7.114,7.114,0,0,1-1-.05,2.29,2.29,0,0,0-1.11.55c-2.55,2-5.11,4.15-7.59,6.19-7.68,6.32-15.63,12.85-24.16,18.4-7.09,4.61-13.82,7.4-20.59,8.54a55.183,55.183,0,0,1-9.33.87,37.06,37.06,0,0,1-6-.46c-3.37-.54-6.13-1.09-8.67-1.74a10.869,10.869,0,0,1-2.75-1.28c-.4-.23-.81-.47-1.24-.69l-2.25-1.16L110,290l.54-.16a4.341,4.341,0,0,1,1.27-.25h.34c7.73,0,15.14-2.5,21.67-4.71,8.58-2.89,16.15-8,23.48-13l1.59-1.07c7-4.73,14-9.74,20.78-14.59l6.56-4.7a3.62,3.62,0,0,0,.88-1.31c2.07-4.55,3.05-9.52,4-14.33.38-2,.78-4,1.25-6,1.28-5.43,2.29-11,3.26-16.43v-.09c.58-3.25,1.08-6.58,1.56-9.8l.57-3.78.45-2.84c.42-2.61.84-5.3,1.17-8,.36-2.94.59-5.94.71-8.92.07-1.81.07-3.69,0-5.82l-.51,1.14a227.062,227.062,0,0,0-13.53,39.9c-1,4.24-1.69,8.64-2.37,12.89-.28,1.75-.57,3.55-.88,5.33-.1.58-.16,1.17-.22,1.79a15.24,15.24,0,0,1-.55,3.25,6.92,6.92,0,0,1-6.74,4.89,7.71,7.71,0,0,1-4.34-1.34,5.69,5.69,0,0,0-2.36-.59h-.37c-.07.31-.15.62-.22.92a16.31,16.31,0,0,1-1,3.35,5.75,5.75,0,0,1-5.59,3.21h-.3a6.16,6.16,0,0,1-5.5-3.54,13.7,13.7,0,0,1-1-9.44,44.55,44.55,0,0,0,.74-10.55v-.23l-.42.19a21.929,21.929,0,0,1-3.45,1.31A6.139,6.139,0,0,1,150,227a7.86,7.86,0,0,1-7.39-5.75,82.549,82.549,0,0,1-1.74-16.59c0-7.85-.2-15.71-.33-21.68-.11-4.72-.25-9.52-.39-14.16-.09-3.18-.19-6.36-.27-9.54q-.1-4.14-.19-8.28-.08-3.51-.16-7v-.36L132,154.11l.81.76a23.871,23.871,0,0,1,3,3.05,19.34,19.34,0,0,1,3.61,10.07,93.823,93.823,0,0,1,.66,11.79c-.17,7.49-1.72,15.3-4.87,24.59a90.41,90.41,0,0,1-15.5,28.27,79.909,79.909,0,0,1-9.72,9.72,9.31,9.31,0,0,1-6,2.48,7.59,7.59,0,0,1-3.07-.67c-2.39-1.05-4.1-3.17-5.07-6.3a37.87,37.87,0,0,1-1.46-16.56c.25-1.77.45-3.58.65-5.33.31-2.7.63-5.49,1.11-8.21a106.14,106.14,0,0,1,8.37-26c1.85-4,3.84-7.8,5.94-11.84.65-1.25,1.32-2.52,2-3.82a43.731,43.731,0,0,0-9.69,5.9c-8.21,6.29-15,14.89-20.82,26.31a4.61,4.61,0,0,0,0,2.15,66.42,66.42,0,0,1-.48,23.27,19.31,19.31,0,0,1-1.57,4.25,5.36,5.36,0,0,1-4,3.24,22.371,22.371,0,0,1-4.22.5c-4.39,0-6-2.66-7.36-7.27a31.42,31.42,0,0,1-.91-7.49c-.05-1-.09-2.06-.17-3.12A8.51,8.51,0,0,1,59,207.56a2.521,2.521,0,0,0-.5-.28c-3.61-1.49-5-3.74-4.92-7.75.15-5.38.24-10.87.32-16.17v-1l-.18.51c-1.31,3.77-2.67,7.67-4,11.48S47,202.13,45.59,206c-3.71,10.57-7.54,21.49-11.48,32.17-2.93,7.94-6.67,14.05-11.44,18.67-2.83,2.74-5.71,4.15-8.79,4.31h-.39a14.25,14.25,0,0,1-9.4-4.34,9.77,9.77,0,0,1-3.1-7,29.331,29.331,0,0,0-.15-3.07c-.07-.84-.14-1.7-.15-2.57q-.12-6.9-.2-13.79-.07-5.9-.17-11.79a5.28,5.28,0,0,0-.17-1A6,6,0,0,1,0,217V199.17a8.274,8.274,0,0,1,.12-1c.09-.71.18-1.39.2-2.06,0-1.7.07-3.42.1-5.09,0-3,.1-6.15.29-9.22A201.075,201.075,0,0,1,4,156.28a244.383,244.383,0,0,1,7.18-27.8c.08-.27.18-.54.32-.93.08-.21.17-.46.28-.77l1.85.19c.09.69.19,1.34.28,1.95.19,1.26.37,2.45.45,3.63.27,4,.55,8.38.68,12.74,0,1,.07,2.08.1,3.11.17,4.95.34,10.06.2,15.1-.15,5.35-.59,10.77-1,16-.09,1.18-.19,2.37-.28,3.56-.29,3.72-.67,7.49-1,11.14-.1,1.05-.21,2.1-.31,3.15-.22,2.29-.46,4.58-.69,6.88-.32,3.13-.65,6.36-1,9.55-.18,1.87-.3,3.82-.36,5.79l-.09,3.15c-.22,7.22-.44,14.68-.54,22,0,1.66.18,2.68,1.34,3.32a2.14,2.14,0,0,0,1,.34c.25,0,.62-.08,1.22-.67,3.4-3.36,6.06-7.6,8.63-13.74,6.66-15.88,13.57-32.7,20.52-50,3.14-7.81,6.11-15.85,9-23.62l1.32-3.55a26.819,26.819,0,0,0,.87-3.21c.2-.92.42-1.87.71-2.8a5.31,5.31,0,0,1,4.88-4.06h.9c2.78,0,4.62,1.2,5.46,3.56.09.26.19.52.28.79a12.43,12.43,0,0,1,1,4.07c.14,5.51.15,11.19,0,17.39-.08,3.78-.25,7.62-.42,11.33-.08,1.71-.16,3.42-.22,5.13l.85-.31,1.21-.41a19.78,19.78,0,0,1,3.62-1c1.1-.17,1.47-.25,1.92-.94a92.251,92.251,0,0,1,15.59-18c8.76-7.84,18.55-12.7,29.09-14.45a4.67,4.67,0,0,0,3.49-1.94c5-7.18,10.17-14.28,15.44-21.52a9.86,9.86,0,0,0,1.72-6.21c0-3.1.41-7,3.62-10a7.43,7.43,0,0,1,5-2,6.25,6.25,0,0,1,5.71,3.46,9.16,9.16,0,0,1,.63,4.55c-.1,1.51-.28,3-.45,4.48-.19,1.63-.39,3.32-.47,5-.15,3.4-.21,6.88-.27,10.24,0,1.73-.06,3.46-.1,5.2l-.63,24.74-.08,2.83-.66,25.56-.18,7c.13-.32.27-.64.4-.95a8.82,8.82,0,0,1,5.06-5.32,5.84,5.84,0,0,1,2-.35,8.69,8.69,0,0,1,7.73,5.67,46,46,0,0,1,1.47,7.95c.24,2.24.32,4.52.39,6.72l.06,1.71a16.063,16.063,0,0,0,1.87-.51,1.23,1.23,0,0,0,.22-.43,186.489,186.489,0,0,1,9.63-28.49c5.8-13.59,11-23.71,16.76-32.82a42.133,42.133,0,0,0,2.66-5.22,6.62,6.62,0,0,1,6.24-4.2,8.377,8.377,0,0,1,.86,0,6.85,6.85,0,0,1,6.09,4.88,26.76,26.76,0,0,1,1,6.25v.72a100.483,100.483,0,0,1,0,12c-.6,6.95-1.29,14.35-2.59,21.72-1.09,6.13-2.45,12.07-3.88,18.35-.35,1.53-.71,3.09-1.06,4.67a17.6,17.6,0,0,1,1.54-1.45,7.88,7.88,0,0,1,5.06-1.91c3.62,0,6.64,2.56,7.69,6.52a14.442,14.442,0,0,1,.33,1.69,15.37,15.37,0,0,1,2.77-2.42c2.16-1.35,2.78-3.4,2-6.65a16.09,16.09,0,0,1,0-6.15c.06-.4.11-.8.16-1.21.41-3.54.82-7,1.33-10.42,1.75-11.91,4.29-21.55,11-29.83,1.76-2.18,4.28-4.8,8.16-5.73a7.519,7.519,0,0,1,1.77-.21,7,7,0,0,1,6.77,4.68c.22.67.44.79,1.46,1.15a19.67,19.67,0,0,1,6.09,3.11c2.23,1.84,2.82,4.85,1.54,7.87-3.12,7.35-7.1,15.88-12.94,23.43-3.32,4.28-6.91,8.71-11,13.52-1.65,1.95-2.68,3.68-2.68,6.3,0,5.1-.32,10.27-.64,15.27-.1,1.51-.19,3-.28,4.54-.27,4.61-.58,9.57-1,14.55-.26,2.92-.57,5.87-.87,8.73-.27,2.47-.54,5-.77,7.54-.35,3.84-.68,8.07-1,13.3-.24,3.66-.51,8-.66,12.35a27,27,0,0,0,2,10.67,46.781,46.781,0,0,1,1.43,4.79c.19.69.37,1.41.57,2.11.12.39.53,1.15.06,1.28A2.23,2.23,0,0,1,234.91,314.69ZM125.27,164.3a7.751,7.751,0,0,0-.94,1.06l-.15.2a3.449,3.449,0,0,0-.41.57c-1,1.92-2,3.86-2.93,5.73a136.305,136.305,0,0,0-6.22,13c-5.46,13.9-8.17,26.87-8.27,39.65,0,1.86.09,3.76.18,5.59a9.745,9.745,0,0,0,.08,1.52c.44-.47.88-.94,1.32-1.39a64.373,64.373,0,0,0,4.44-5,63.37,63.37,0,0,0,8.57-15.41,89,89,0,0,0,6.34-24.66,85.391,85.391,0,0,0,0-13.19v-.69a19.29,19.29,0,0,0-1.44-5.78A7,7,0,0,0,125.27,164.3Zm130,12.3a3.35,3.35,0,0,0-.85.09,2,2,0,0,0-1.11.75c-1,2.93-2,5.94-2.94,8.84-.71,2.19-1.45,4.45-2.19,6.67-.06.19-.13.37-.19.56,3.63-4.94,6.73-10.42,8-16.88Z" fill="#fff"/>
  </g>
</svg>
