<svg id="arrow_end" xmlns="http://www.w3.org/2000/svg" xmlns:xlink="http://www.w3.org/1999/xlink" width="129" height="129" viewBox="0 0 129 129">
  <defs>
    <clipPath id="clip-path">
      <rect id="長方形_2" data-name="長方形 2" width="129" height="129" fill="#fff"/>
    </clipPath>
  </defs>
  <g id="マスクグループ_1" data-name="マスクグループ 1" clip-path="url(#clip-path)">
    <g id="グループ_2" data-name="グループ 2" transform="translate(9.702 7)">
      <g id="arrow_left" transform="translate(47.099)">
        <path id="パス_13" data-name="パス 13" d="M40.4,121.3a4.1,4.1,0,0,1-5.8,0,4.1,4.1,0,0,1,0-5.8l51-51-51-51a4.1,4.1,0,1,1,5.8-5.8l54,53.9a4.1,4.1,0,0,1,0,5.8Z" transform="translate(-33.4 -6.5)" fill="#cfcfcf"/>
      </g>
      <g id="arrow_left-2" data-name="arrow_left" transform="translate(0)">
        <path id="パス_14" data-name="パス 14" d="M40.4,121.3a4.1,4.1,0,0,1-5.8,0,4.1,4.1,0,0,1,0-5.8l51-51-51-51a4.1,4.1,0,1,1,5.8-5.8l54,53.9a4.1,4.1,0,0,1,0,5.8Z" transform="translate(-33.4 -6.5)" fill="#cfcfcf"/>
      </g>
    </g>
  </g>
</svg>
